%TF.GenerationSoftware,KiCad,Pcbnew,9.0.1*%
%TF.CreationDate,2025-07-02T20:13:44+05:30*%
%TF.ProjectId,currentdetectionpcb,63757272-656e-4746-9465-74656374696f,rev?*%
%TF.SameCoordinates,Original*%
%TF.FileFunction,Copper,L1,Top*%
%TF.FilePolarity,Positive*%
%FSLAX46Y46*%
G04 Gerber Fmt 4.6, Leading zero omitted, Abs format (unit mm)*
G04 Created by KiCad (PCBNEW 9.0.1) date 2025-07-02 20:13:44*
%MOMM*%
%LPD*%
G01*
G04 APERTURE LIST*
G04 Aperture macros list*
%AMRoundRect*
0 Rectangle with rounded corners*
0 $1 Rounding radius*
0 $2 $3 $4 $5 $6 $7 $8 $9 X,Y pos of 4 corners*
0 Add a 4 corners polygon primitive as box body*
4,1,4,$2,$3,$4,$5,$6,$7,$8,$9,$2,$3,0*
0 Add four circle primitives for the rounded corners*
1,1,$1+$1,$2,$3*
1,1,$1+$1,$4,$5*
1,1,$1+$1,$6,$7*
1,1,$1+$1,$8,$9*
0 Add four rect primitives between the rounded corners*
20,1,$1+$1,$2,$3,$4,$5,0*
20,1,$1+$1,$4,$5,$6,$7,0*
20,1,$1+$1,$6,$7,$8,$9,0*
20,1,$1+$1,$8,$9,$2,$3,0*%
G04 Aperture macros list end*
%TA.AperFunction,SMDPad,CuDef*%
%ADD10RoundRect,0.250000X-0.262500X-0.450000X0.262500X-0.450000X0.262500X0.450000X-0.262500X0.450000X0*%
%TD*%
%TA.AperFunction,ComponentPad*%
%ADD11R,1.700000X1.700000*%
%TD*%
%TA.AperFunction,ComponentPad*%
%ADD12C,1.700000*%
%TD*%
%TA.AperFunction,SMDPad,CuDef*%
%ADD13RoundRect,0.150000X-0.150000X0.512500X-0.150000X-0.512500X0.150000X-0.512500X0.150000X0.512500X0*%
%TD*%
%TA.AperFunction,Conductor*%
%ADD14C,0.200000*%
%TD*%
G04 APERTURE END LIST*
D10*
%TO.P,R1,2*%
%TO.N,Net-(R1-Pad2)*%
X118700000Y-66300000D03*
%TO.P,R1,1*%
%TO.N,Net-(J1-Pin_1)*%
X116875000Y-66300000D03*
%TD*%
D11*
%TO.P,J1,1,Pin_1*%
%TO.N,Net-(J1-Pin_1)*%
X111700000Y-71000000D03*
D12*
%TO.P,J1,2,Pin_2*%
%TO.N,GND*%
X111700000Y-73540000D03*
%TD*%
D13*
%TO.P,U1,1*%
%TO.N,Net-(R1-Pad2)*%
X118657500Y-70987500D03*
%TO.P,U1,2,V-*%
%TO.N,-5V*%
X117707500Y-70987500D03*
%TO.P,U1,3,+*%
%TO.N,Net-(J1-Pin_1)*%
X116757500Y-70987500D03*
%TO.P,U1,4,-*%
%TO.N,GND*%
X116757500Y-73262500D03*
%TO.P,U1,5,V+*%
%TO.N,+5V*%
X118657500Y-73262500D03*
%TD*%
D11*
%TO.P,J3,1,Pin_1*%
%TO.N,+5V*%
X123600000Y-71025000D03*
D12*
%TO.P,J3,2,Pin_2*%
%TO.N,Net-(J2-Pin_1)*%
X123600000Y-73565000D03*
%TD*%
D11*
%TO.P,J2,1,Pin_1*%
%TO.N,Net-(J2-Pin_1)*%
X118940000Y-78200000D03*
D12*
%TO.P,J2,2,Pin_2*%
%TO.N,-5V*%
X116400000Y-78200000D03*
%TD*%
D14*
%TO.N,+5V*%
X120895000Y-71025000D02*
X118657500Y-73262500D01*
X123600000Y-71025000D02*
X120895000Y-71025000D01*
%TO.N,Net-(J2-Pin_1)*%
X118965000Y-78200000D02*
X123600000Y-73565000D01*
X118940000Y-78200000D02*
X118965000Y-78200000D01*
%TO.N,-5V*%
X117707500Y-76892500D02*
X117707500Y-70987500D01*
X116400000Y-78200000D02*
X117707500Y-76892500D01*
%TO.N,GND*%
X116480000Y-73540000D02*
X116757500Y-73262500D01*
X111700000Y-73540000D02*
X116480000Y-73540000D01*
%TO.N,Net-(J1-Pin_1)*%
X116745000Y-71000000D02*
X116757500Y-70987500D01*
X111700000Y-71000000D02*
X116745000Y-71000000D01*
%TO.N,Net-(R1-Pad2)*%
X118700000Y-66300000D02*
X118700000Y-70945000D01*
X118700000Y-70945000D02*
X118657500Y-70987500D01*
%TO.N,Net-(J1-Pin_1)*%
X116875000Y-70870000D02*
X116757500Y-70987500D01*
X116875000Y-66300000D02*
X116875000Y-70870000D01*
%TO.N,+5V*%
X118657500Y-72757500D02*
X118657500Y-73262500D01*
%TO.N,Net-(J2-Pin_1)*%
X118940000Y-78200000D02*
X119000000Y-78200000D01*
%TD*%
M02*
