%TF.GenerationSoftware,KiCad,Pcbnew,9.0.1*%
%TF.CreationDate,2025-07-02T20:13:44+05:30*%
%TF.ProjectId,currentdetectionpcb,63757272-656e-4746-9465-74656374696f,rev?*%
%TF.SameCoordinates,Original*%
%TF.FileFunction,Copper,L2,Bot*%
%TF.FilePolarity,Positive*%
%FSLAX46Y46*%
G04 Gerber Fmt 4.6, Leading zero omitted, Abs format (unit mm)*
G04 Created by KiCad (PCBNEW 9.0.1) date 2025-07-02 20:13:44*
%MOMM*%
%LPD*%
G01*
G04 APERTURE LIST*
%TA.AperFunction,ComponentPad*%
%ADD10R,1.700000X1.700000*%
%TD*%
%TA.AperFunction,ComponentPad*%
%ADD11C,1.700000*%
%TD*%
G04 APERTURE END LIST*
D10*
%TO.P,J1,1,Pin_1*%
%TO.N,Net-(J1-Pin_1)*%
X111700000Y-71000000D03*
D11*
%TO.P,J1,2,Pin_2*%
%TO.N,GND*%
X111700000Y-73540000D03*
%TD*%
D10*
%TO.P,J3,1,Pin_1*%
%TO.N,+5V*%
X123600000Y-71025000D03*
D11*
%TO.P,J3,2,Pin_2*%
%TO.N,Net-(J2-Pin_1)*%
X123600000Y-73565000D03*
%TD*%
D10*
%TO.P,J2,1,Pin_1*%
%TO.N,Net-(J2-Pin_1)*%
X118940000Y-78200000D03*
D11*
%TO.P,J2,2,Pin_2*%
%TO.N,-5V*%
X116400000Y-78200000D03*
%TD*%
%TA.AperFunction,Conductor*%
%TO.N,GND*%
G36*
X126542539Y-63520185D02*
G01*
X126588294Y-63572989D01*
X126599500Y-63624500D01*
X126599500Y-80575500D01*
X126579815Y-80642539D01*
X126527011Y-80688294D01*
X126475500Y-80699500D01*
X108724500Y-80699500D01*
X108657461Y-80679815D01*
X108611706Y-80627011D01*
X108600500Y-80575500D01*
X108600500Y-78093713D01*
X115049500Y-78093713D01*
X115049500Y-78306286D01*
X115082753Y-78516239D01*
X115148444Y-78718414D01*
X115244951Y-78907820D01*
X115369890Y-79079786D01*
X115520213Y-79230109D01*
X115692179Y-79355048D01*
X115692181Y-79355049D01*
X115692184Y-79355051D01*
X115881588Y-79451557D01*
X116083757Y-79517246D01*
X116293713Y-79550500D01*
X116293714Y-79550500D01*
X116506286Y-79550500D01*
X116506287Y-79550500D01*
X116716243Y-79517246D01*
X116918412Y-79451557D01*
X117107816Y-79355051D01*
X117279792Y-79230104D01*
X117393329Y-79116566D01*
X117454648Y-79083084D01*
X117524340Y-79088068D01*
X117580274Y-79129939D01*
X117597189Y-79160917D01*
X117646202Y-79292328D01*
X117646206Y-79292335D01*
X117732452Y-79407544D01*
X117732455Y-79407547D01*
X117847664Y-79493793D01*
X117847671Y-79493797D01*
X117982517Y-79544091D01*
X117982516Y-79544091D01*
X117989444Y-79544835D01*
X118042127Y-79550500D01*
X119837872Y-79550499D01*
X119897483Y-79544091D01*
X120032331Y-79493796D01*
X120147546Y-79407546D01*
X120233796Y-79292331D01*
X120284091Y-79157483D01*
X120290500Y-79097873D01*
X120290499Y-77302128D01*
X120284091Y-77242517D01*
X120282810Y-77239083D01*
X120233797Y-77107671D01*
X120233793Y-77107664D01*
X120147547Y-76992455D01*
X120147544Y-76992452D01*
X120032335Y-76906206D01*
X120032328Y-76906202D01*
X119897482Y-76855908D01*
X119897483Y-76855908D01*
X119837883Y-76849501D01*
X119837881Y-76849500D01*
X119837873Y-76849500D01*
X119837864Y-76849500D01*
X118042129Y-76849500D01*
X118042123Y-76849501D01*
X117982516Y-76855908D01*
X117847671Y-76906202D01*
X117847664Y-76906206D01*
X117732455Y-76992452D01*
X117732452Y-76992455D01*
X117646206Y-77107664D01*
X117646203Y-77107669D01*
X117597189Y-77239083D01*
X117555317Y-77295016D01*
X117489853Y-77319433D01*
X117421580Y-77304581D01*
X117393326Y-77283430D01*
X117279786Y-77169890D01*
X117107820Y-77044951D01*
X116918414Y-76948444D01*
X116918413Y-76948443D01*
X116918412Y-76948443D01*
X116716243Y-76882754D01*
X116716241Y-76882753D01*
X116716240Y-76882753D01*
X116554957Y-76857208D01*
X116506287Y-76849500D01*
X116293713Y-76849500D01*
X116245042Y-76857208D01*
X116083760Y-76882753D01*
X115881585Y-76948444D01*
X115692179Y-77044951D01*
X115520213Y-77169890D01*
X115369890Y-77320213D01*
X115244951Y-77492179D01*
X115148444Y-77681585D01*
X115082753Y-77883760D01*
X115049500Y-78093713D01*
X108600500Y-78093713D01*
X108600500Y-70102135D01*
X110349500Y-70102135D01*
X110349500Y-71897870D01*
X110349501Y-71897876D01*
X110355908Y-71957483D01*
X110406202Y-72092328D01*
X110406206Y-72092335D01*
X110492452Y-72207544D01*
X110492455Y-72207547D01*
X110607664Y-72293793D01*
X110607671Y-72293797D01*
X110652618Y-72310561D01*
X110742517Y-72344091D01*
X110802127Y-72350500D01*
X110812685Y-72350499D01*
X110879723Y-72370179D01*
X110900372Y-72386818D01*
X111570591Y-73057037D01*
X111507007Y-73074075D01*
X111392993Y-73139901D01*
X111299901Y-73232993D01*
X111234075Y-73347007D01*
X111217037Y-73410591D01*
X110584728Y-72778282D01*
X110584727Y-72778282D01*
X110545380Y-72832439D01*
X110448904Y-73021782D01*
X110383242Y-73223869D01*
X110383242Y-73223872D01*
X110350000Y-73433753D01*
X110350000Y-73646246D01*
X110383242Y-73856127D01*
X110383242Y-73856130D01*
X110448904Y-74058217D01*
X110545375Y-74247550D01*
X110584728Y-74301716D01*
X111217037Y-73669408D01*
X111234075Y-73732993D01*
X111299901Y-73847007D01*
X111392993Y-73940099D01*
X111507007Y-74005925D01*
X111570590Y-74022962D01*
X110938282Y-74655269D01*
X110938282Y-74655270D01*
X110992449Y-74694624D01*
X111181782Y-74791095D01*
X111383870Y-74856757D01*
X111593754Y-74890000D01*
X111806246Y-74890000D01*
X112016127Y-74856757D01*
X112016130Y-74856757D01*
X112218217Y-74791095D01*
X112407554Y-74694622D01*
X112461716Y-74655270D01*
X112461717Y-74655270D01*
X111829408Y-74022962D01*
X111892993Y-74005925D01*
X112007007Y-73940099D01*
X112100099Y-73847007D01*
X112165925Y-73732993D01*
X112182962Y-73669409D01*
X112815270Y-74301717D01*
X112815270Y-74301716D01*
X112854622Y-74247554D01*
X112951095Y-74058217D01*
X113016757Y-73856130D01*
X113016757Y-73856127D01*
X113050000Y-73646246D01*
X113050000Y-73433753D01*
X113016757Y-73223872D01*
X113016757Y-73223869D01*
X112951095Y-73021782D01*
X112854624Y-72832449D01*
X112815270Y-72778282D01*
X112815269Y-72778282D01*
X112182962Y-73410590D01*
X112165925Y-73347007D01*
X112100099Y-73232993D01*
X112007007Y-73139901D01*
X111892993Y-73074075D01*
X111829409Y-73057037D01*
X112499627Y-72386818D01*
X112560950Y-72353333D01*
X112587307Y-72350499D01*
X112597872Y-72350499D01*
X112657483Y-72344091D01*
X112792331Y-72293796D01*
X112907546Y-72207546D01*
X112993796Y-72092331D01*
X113044091Y-71957483D01*
X113050500Y-71897873D01*
X113050499Y-70127135D01*
X122249500Y-70127135D01*
X122249500Y-71922870D01*
X122249501Y-71922876D01*
X122255908Y-71982483D01*
X122306202Y-72117328D01*
X122306206Y-72117335D01*
X122392452Y-72232544D01*
X122392455Y-72232547D01*
X122507664Y-72318793D01*
X122507671Y-72318797D01*
X122639082Y-72367810D01*
X122695016Y-72409681D01*
X122719433Y-72475145D01*
X122704582Y-72543418D01*
X122683431Y-72571673D01*
X122569889Y-72685215D01*
X122444951Y-72857179D01*
X122348444Y-73046585D01*
X122282753Y-73248760D01*
X122249500Y-73458713D01*
X122249500Y-73671286D01*
X122282753Y-73881239D01*
X122348444Y-74083414D01*
X122444951Y-74272820D01*
X122569890Y-74444786D01*
X122720213Y-74595109D01*
X122892179Y-74720048D01*
X122892181Y-74720049D01*
X122892184Y-74720051D01*
X123081588Y-74816557D01*
X123283757Y-74882246D01*
X123493713Y-74915500D01*
X123493714Y-74915500D01*
X123706286Y-74915500D01*
X123706287Y-74915500D01*
X123916243Y-74882246D01*
X124118412Y-74816557D01*
X124307816Y-74720051D01*
X124396980Y-74655270D01*
X124479786Y-74595109D01*
X124479788Y-74595106D01*
X124479792Y-74595104D01*
X124630104Y-74444792D01*
X124630106Y-74444788D01*
X124630109Y-74444786D01*
X124755048Y-74272820D01*
X124755047Y-74272820D01*
X124755051Y-74272816D01*
X124851557Y-74083412D01*
X124917246Y-73881243D01*
X124950500Y-73671287D01*
X124950500Y-73458713D01*
X124917246Y-73248757D01*
X124851557Y-73046588D01*
X124755051Y-72857184D01*
X124755049Y-72857181D01*
X124755048Y-72857179D01*
X124630109Y-72685213D01*
X124516569Y-72571673D01*
X124483084Y-72510350D01*
X124488068Y-72440658D01*
X124529940Y-72384725D01*
X124560915Y-72367810D01*
X124692331Y-72318796D01*
X124807546Y-72232546D01*
X124893796Y-72117331D01*
X124944091Y-71982483D01*
X124950500Y-71922873D01*
X124950499Y-70127128D01*
X124944091Y-70067517D01*
X124934766Y-70042516D01*
X124893797Y-69932671D01*
X124893793Y-69932664D01*
X124807547Y-69817455D01*
X124807544Y-69817452D01*
X124692335Y-69731206D01*
X124692328Y-69731202D01*
X124557482Y-69680908D01*
X124557483Y-69680908D01*
X124497883Y-69674501D01*
X124497881Y-69674500D01*
X124497873Y-69674500D01*
X124497864Y-69674500D01*
X122702129Y-69674500D01*
X122702123Y-69674501D01*
X122642516Y-69680908D01*
X122507671Y-69731202D01*
X122507664Y-69731206D01*
X122392455Y-69817452D01*
X122392452Y-69817455D01*
X122306206Y-69932664D01*
X122306202Y-69932671D01*
X122255908Y-70067517D01*
X122252187Y-70102135D01*
X122249501Y-70127123D01*
X122249500Y-70127135D01*
X113050499Y-70127135D01*
X113050499Y-70102128D01*
X113044091Y-70042517D01*
X113003120Y-69932669D01*
X112993797Y-69907671D01*
X112993793Y-69907664D01*
X112907547Y-69792455D01*
X112907544Y-69792452D01*
X112792335Y-69706206D01*
X112792328Y-69706202D01*
X112657482Y-69655908D01*
X112657483Y-69655908D01*
X112597883Y-69649501D01*
X112597881Y-69649500D01*
X112597873Y-69649500D01*
X112597864Y-69649500D01*
X110802129Y-69649500D01*
X110802123Y-69649501D01*
X110742516Y-69655908D01*
X110607671Y-69706202D01*
X110607664Y-69706206D01*
X110492455Y-69792452D01*
X110492452Y-69792455D01*
X110406206Y-69907664D01*
X110406202Y-69907671D01*
X110355908Y-70042517D01*
X110349501Y-70102116D01*
X110349501Y-70102123D01*
X110349500Y-70102135D01*
X108600500Y-70102135D01*
X108600500Y-63624500D01*
X108620185Y-63557461D01*
X108672989Y-63511706D01*
X108724500Y-63500500D01*
X126475500Y-63500500D01*
X126542539Y-63520185D01*
G37*
%TD.AperFunction*%
%TD*%
M02*
