%TF.GenerationSoftware,KiCad,Pcbnew,9.0.1*%
%TF.CreationDate,2025-07-02T20:13:44+05:30*%
%TF.ProjectId,currentdetectionpcb,63757272-656e-4746-9465-74656374696f,rev?*%
%TF.SameCoordinates,Original*%
%TF.FileFunction,Legend,Top*%
%TF.FilePolarity,Positive*%
%FSLAX46Y46*%
G04 Gerber Fmt 4.6, Leading zero omitted, Abs format (unit mm)*
G04 Created by KiCad (PCBNEW 9.0.1) date 2025-07-02 20:13:44*
%MOMM*%
%LPD*%
G01*
G04 APERTURE LIST*
%ADD10C,0.150000*%
%ADD11C,0.120000*%
G04 APERTURE END LIST*
D10*
X117620833Y-65104819D02*
X117287500Y-64628628D01*
X117049405Y-65104819D02*
X117049405Y-64104819D01*
X117049405Y-64104819D02*
X117430357Y-64104819D01*
X117430357Y-64104819D02*
X117525595Y-64152438D01*
X117525595Y-64152438D02*
X117573214Y-64200057D01*
X117573214Y-64200057D02*
X117620833Y-64295295D01*
X117620833Y-64295295D02*
X117620833Y-64438152D01*
X117620833Y-64438152D02*
X117573214Y-64533390D01*
X117573214Y-64533390D02*
X117525595Y-64581009D01*
X117525595Y-64581009D02*
X117430357Y-64628628D01*
X117430357Y-64628628D02*
X117049405Y-64628628D01*
X118573214Y-65104819D02*
X118001786Y-65104819D01*
X118287500Y-65104819D02*
X118287500Y-64104819D01*
X118287500Y-64104819D02*
X118192262Y-64247676D01*
X118192262Y-64247676D02*
X118097024Y-64342914D01*
X118097024Y-64342914D02*
X118001786Y-64390533D01*
X111366666Y-68074819D02*
X111366666Y-68789104D01*
X111366666Y-68789104D02*
X111319047Y-68931961D01*
X111319047Y-68931961D02*
X111223809Y-69027200D01*
X111223809Y-69027200D02*
X111080952Y-69074819D01*
X111080952Y-69074819D02*
X110985714Y-69074819D01*
X112366666Y-69074819D02*
X111795238Y-69074819D01*
X112080952Y-69074819D02*
X112080952Y-68074819D01*
X112080952Y-68074819D02*
X111985714Y-68217676D01*
X111985714Y-68217676D02*
X111890476Y-68312914D01*
X111890476Y-68312914D02*
X111795238Y-68360533D01*
X119562319Y-72886904D02*
X120371842Y-72886904D01*
X120371842Y-72886904D02*
X120467080Y-72839285D01*
X120467080Y-72839285D02*
X120514700Y-72791666D01*
X120514700Y-72791666D02*
X120562319Y-72696428D01*
X120562319Y-72696428D02*
X120562319Y-72505952D01*
X120562319Y-72505952D02*
X120514700Y-72410714D01*
X120514700Y-72410714D02*
X120467080Y-72363095D01*
X120467080Y-72363095D02*
X120371842Y-72315476D01*
X120371842Y-72315476D02*
X119562319Y-72315476D01*
X120562319Y-71315476D02*
X120562319Y-71886904D01*
X120562319Y-71601190D02*
X119562319Y-71601190D01*
X119562319Y-71601190D02*
X119705176Y-71696428D01*
X119705176Y-71696428D02*
X119800414Y-71791666D01*
X119800414Y-71791666D02*
X119848033Y-71886904D01*
X123266666Y-68099819D02*
X123266666Y-68814104D01*
X123266666Y-68814104D02*
X123219047Y-68956961D01*
X123219047Y-68956961D02*
X123123809Y-69052200D01*
X123123809Y-69052200D02*
X122980952Y-69099819D01*
X122980952Y-69099819D02*
X122885714Y-69099819D01*
X123647619Y-68099819D02*
X124266666Y-68099819D01*
X124266666Y-68099819D02*
X123933333Y-68480771D01*
X123933333Y-68480771D02*
X124076190Y-68480771D01*
X124076190Y-68480771D02*
X124171428Y-68528390D01*
X124171428Y-68528390D02*
X124219047Y-68576009D01*
X124219047Y-68576009D02*
X124266666Y-68671247D01*
X124266666Y-68671247D02*
X124266666Y-68909342D01*
X124266666Y-68909342D02*
X124219047Y-69004580D01*
X124219047Y-69004580D02*
X124171428Y-69052200D01*
X124171428Y-69052200D02*
X124076190Y-69099819D01*
X124076190Y-69099819D02*
X123790476Y-69099819D01*
X123790476Y-69099819D02*
X123695238Y-69052200D01*
X123695238Y-69052200D02*
X123647619Y-69004580D01*
X120774819Y-78533333D02*
X121489104Y-78533333D01*
X121489104Y-78533333D02*
X121631961Y-78580952D01*
X121631961Y-78580952D02*
X121727200Y-78676190D01*
X121727200Y-78676190D02*
X121774819Y-78819047D01*
X121774819Y-78819047D02*
X121774819Y-78914285D01*
X120870057Y-78104761D02*
X120822438Y-78057142D01*
X120822438Y-78057142D02*
X120774819Y-77961904D01*
X120774819Y-77961904D02*
X120774819Y-77723809D01*
X120774819Y-77723809D02*
X120822438Y-77628571D01*
X120822438Y-77628571D02*
X120870057Y-77580952D01*
X120870057Y-77580952D02*
X120965295Y-77533333D01*
X120965295Y-77533333D02*
X121060533Y-77533333D01*
X121060533Y-77533333D02*
X121203390Y-77580952D01*
X121203390Y-77580952D02*
X121774819Y-78152380D01*
X121774819Y-78152380D02*
X121774819Y-77533333D01*
D11*
%TO.C,R1*%
X117560436Y-67035000D02*
X118014564Y-67035000D01*
X117560436Y-65565000D02*
X118014564Y-65565000D01*
%TO.C,J1*%
X110320000Y-69620000D02*
X111700000Y-69620000D01*
X110320000Y-71000000D02*
X110320000Y-69620000D01*
X110320000Y-72270000D02*
X110320000Y-74920000D01*
X110320000Y-72270000D02*
X113080000Y-72270000D01*
X110320000Y-74920000D02*
X113080000Y-74920000D01*
X113080000Y-72270000D02*
X113080000Y-74920000D01*
%TO.C,U1*%
X119267500Y-72125000D02*
X119267500Y-71325000D01*
X119267500Y-72125000D02*
X119267500Y-72925000D01*
X116147500Y-72125000D02*
X116147500Y-71325000D01*
X116147500Y-72125000D02*
X116147500Y-72925000D01*
X119547500Y-71065000D02*
X119217500Y-70825000D01*
X119547500Y-70585000D01*
X119547500Y-71065000D01*
G36*
X119547500Y-71065000D02*
G01*
X119217500Y-70825000D01*
X119547500Y-70585000D01*
X119547500Y-71065000D01*
G37*
%TO.C,J3*%
X122220000Y-69645000D02*
X123600000Y-69645000D01*
X122220000Y-71025000D02*
X122220000Y-69645000D01*
X122220000Y-72295000D02*
X122220000Y-74945000D01*
X122220000Y-72295000D02*
X124980000Y-72295000D01*
X122220000Y-74945000D02*
X124980000Y-74945000D01*
X124980000Y-72295000D02*
X124980000Y-74945000D01*
%TO.C,J2*%
X120320000Y-76820000D02*
X120320000Y-78200000D01*
X118940000Y-76820000D02*
X120320000Y-76820000D01*
X117670000Y-76820000D02*
X115020000Y-76820000D01*
X117670000Y-76820000D02*
X117670000Y-79580000D01*
X115020000Y-76820000D02*
X115020000Y-79580000D01*
X117670000Y-79580000D02*
X115020000Y-79580000D01*
%TD*%
M02*
